<?xml version="1.0" encoding="UTF-8"?><svg id="_圖層_1" xmlns="http://www.w3.org/2000/svg" viewBox="0 0 750 250"><defs><style>.cls-1{fill:#008d71;}.cls-2{fill:#a4cfbd;}.cls-3{fill:#23a197;}.cls-4{fill:#3d5a55;}</style></defs><path class="cls-3" d="m100.43,50c-27.9,0-50.46,22.85-49.99,50.85.46,27.42,23.4,49.15,50.82,49.15h22.62c.92,0,1.72-.62,1.94-1.51l24-96c.32-1.26-.64-2.49-1.94-2.49h-47.44Z"/><path class="cls-2" d="m100.43,200c27.9,0,50.46-22.85,49.99-50.85-.46-27.42-23.4-49.15-50.82-49.15h-22.62c-.92,0-1.72.62-1.94,1.51l-24,96c-.32,1.26.64,2.49,1.94,2.49h47.44Z"/><path class="cls-1" d="m123.87,150c.92,0,1.72-.62,1.94-1.51l8.69-34.77c-9.16-8.51-21.49-13.72-34.89-13.72h-22.62c-.92,0-1.72.62-1.94,1.51l-8.69,34.77c9.16,8.51,21.49,13.72,34.89,13.72h22.62Z"/><path class="cls-4" d="m234.24,175.2c-7.64,0-14.12-1.38-19.46-4.14-5.34-2.76-10.12-6.81-14.35-12.14l9.13-9.13c.85-.85,2.24-.76,2.98.18,2.37,3,5.1,5.41,8.18,7.22,3.68,2.16,8.37,3.24,14.08,3.24s9.95-1.2,13.16-3.6,4.58-6.13,4.33-9.97c-.18-2.7-.99-4.94-2.45-6.72-1.66-2.02-3.84-3.7-6.56-5.04-2.71-1.33-5.71-2.53-8.97-3.59-3.27-1.06-6.53-2.25-9.8-3.59-3.27-1.33-6.26-3.01-8.97-5.04-2.71-2.02-4.9-4.64-6.56-7.87-1.66-3.22-2.48-7.31-2.48-12.28,0-5.7,1.4-10.56,4.21-14.56,2.8-4,6.6-7.06,11.38-9.18,4.78-2.12,10.12-3.17,16.01-3.17,6.35,0,12.03,1.24,17.04,3.73,5.01,2.48,9.08,5.66,12.21,9.52l-9.3,9.3c-.78.78-2.06.78-2.83-.01-2.34-2.39-4.76-4.22-7.25-5.49-2.99-1.52-6.42-2.28-10.28-2.28-4.78,0-8.53.97-11.25,2.9-2.71,1.93-4.07,4.65-4.07,8.14,0,2.95.83,5.31,2.48,7.11,1.66,1.79,3.84,3.31,6.56,4.55,2.71,1.24,5.7,2.42,8.97,3.52,3.26,1.1,6.53,2.35,9.8,3.73,3.26,1.38,6.25,3.15,8.97,5.31,2.71,2.16,4.9,4.95,6.56,8.35,1.66,3.4,2.48,7.68,2.48,12.83,0,8.65-3.06,15.5-9.18,20.56-6.12,5.06-14.38,7.59-24.77,7.59Z"/><path class="cls-4" d="m409.22,119.79c-2.21-4-5.24-7.27-9.11-9.8-3.86-2.53-8.28-3.79-13.25-3.79s-9.27,1.13-13.18,3.38c-2.55,1.47-4.73,3.3-6.56,5.47v-5.47c0-1.1-.9-2-2-2h-13.18v66.24h15.18v-38.23c0-2.94.64-5.57,1.93-7.87,1.29-2.3,3.08-4.09,5.38-5.38,2.3-1.29,4.92-1.93,7.87-1.93,4.42,0,8.03,1.43,10.83,4.28,2.8,2.85,4.21,6.49,4.21,10.9v38.23h15.18v-41.54c0-4.32-1.1-8.49-3.31-12.49Z"/><path class="cls-4" d="m459.59,175.2c-6.53,0-12.44-1.52-17.73-4.55-5.29-3.04-9.45-7.18-12.49-12.42-3.04-5.24-4.55-11.08-4.55-17.53s1.52-12.4,4.55-17.59c3.04-5.2,7.2-9.31,12.49-12.35,5.29-3.04,11.2-4.55,17.73-4.55,5.15,0,9.96.99,14.42,2.97,4.46,1.98,8.26,4.81,11.38,8.49l-8.48,8.59c-.78.79-2.04.78-2.84,0-1.63-1.58-3.5-2.81-5.59-3.7-2.71-1.15-5.68-1.73-8.9-1.73-3.77,0-7.11.85-10,2.55-2.9,1.7-5.15,4.03-6.76,6.97-1.61,2.95-2.42,6.4-2.42,10.35s.8,7.29,2.42,10.28c1.61,2.99,3.86,5.34,6.76,7.04,2.9,1.7,6.23,2.55,10,2.55,3.22,0,6.19-.57,8.9-1.73,2.1-.89,3.96-2.12,5.59-3.7.8-.77,2.06-.79,2.84,0l8.47,8.59c-3.13,3.68-6.92,6.51-11.38,8.49-4.46,1.98-9.27,2.97-14.42,2.97Z"/><path class="cls-4" d="m537.42,107.58h-15.87v-27.6h-15.18v27.6h-15.87v11.8c0,1.1.9,2,2,2h13.87v52.44h15.18v-52.44h15.87v-13.8Z"/><path class="cls-1" d="m557.29,95.43c-2.58,0-4.72-.87-6.42-2.62-1.7-1.75-2.55-3.91-2.55-6.49s.85-4.74,2.55-6.49c1.7-1.75,3.84-2.62,6.42-2.62s4.83.88,6.49,2.62c1.66,1.75,2.48,3.91,2.48,6.49s-.83,4.74-2.48,6.49c-1.66,1.75-3.82,2.62-6.49,2.62Z"/><rect class="cls-4" x="549.7" y="107.58" width="15.18" height="66.24"/><path class="cls-4" d="m610.22,90.26c1.98-1.98,4.81-2.97,8.49-2.97,2.02,0,3.68.32,4.97.97.77.39,1.52.86,2.23,1.41.81.64,1.96.61,2.69-.12l8.47-8.47c-2.48-2.57-5.15-4.55-8-5.93-2.85-1.38-6.3-2.07-10.35-2.07-5.24,0-9.87,1.1-13.87,3.31s-7.13,5.24-9.38,9.11c-2.26,3.86-3.38,8.33-3.38,13.39v8.69h-15.87v11.8c0,1.1.9,2,2,2h13.87v52.44h15.18v-52.44h20.01v-13.8h-20.01v-8.83c0-3.68.99-6.51,2.97-8.49Z"/><path class="cls-4" d="m325.22,108.81l-17.43,41.93-16.47-41.89c-.3-.77-1.04-1.27-1.86-1.27h-15.34l25.18,59.58-15.94,32.84h15.51c.78,0,1.49-.46,1.82-1.17l11.1-24.32,30.77-66.93h-15.5c-.81,0-1.54.49-1.85,1.23Z"/><path class="cls-4" d="m682.22,108.81l-17.43,41.93-16.47-41.89c-.3-.77-1.04-1.27-1.86-1.27h-15.34l25.18,59.58-15.94,32.84h15.51c.78,0,1.49-.46,1.82-1.17l11.1-24.32,30.77-66.93h-15.5c-.81,0-1.54.49-1.85,1.23Z"/></svg>